<svg xmlns="http://www.w3.org/2000/svg" width="78" height="115" viewBox="0 0 78 115">
    <g fill="#FFF" fill-rule="nonzero">
        <path d="M76.141 115H1.857A1.859 1.859 0 0 1 0 113.142V68.955c0-2.721 1.839-5.175 4.685-6.247l20.146-7.589a1.857 1.857 0 0 1 2.27.82l10.746 18.876c.33.58.966.624 1.154.624.188 0 .822-.045 1.152-.623l10.75-18.876a1.857 1.857 0 0 1 2.33-.794l20.36 8.522c2.676 1.12 4.407 3.53 4.407 6.136v43.338A1.86 1.86 0 0 1 76.141 115zm-72.427-3.715h70.57V69.804c0-1.122-.813-2.16-2.126-2.709l-18.843-7.888-9.937 17.448c-.89 1.565-2.527 2.5-4.377 2.5-1.852 0-3.49-.933-4.38-2.5l-9.965-17.497-18.661 7.03c-1.386.52-2.28 1.606-2.28 2.767v42.33zM39 52c-13.233 0-24-10.118-24-22.554v-6.892C15 10.118 25.767 0 39 0 52.23 0 63 10.118 63 22.554v6.892C63 41.883 52.231 52 39 52zm0-48.247c-11.146 0-20.212 8.435-20.212 18.8v6.893c0 10.366 9.068 18.801 20.211 18.801 11.143 0 20.213-8.435 20.213-18.8v-6.893c0-10.366-9.068-18.801-20.213-18.801z"/>
    </g>
</svg>
