<?xml version="1.0" encoding="UTF-8"?><!DOCTYPE svg PUBLIC "-//W3C//DTD SVG 1.1//EN" "http://www.w3.org/Graphics/SVG/1.1/DTD/svg11.dtd"><svg xmlns="http://www.w3.org/2000/svg"><symbol id="icon-01-normal-knowledge-b" viewBox="0 0 24 20">
    <g fill-rule="evenodd">
        <path d="M0-2h24v24H0z"/>
        <path fill-opacity=".5" d="M22.978 4.004H19.98V.008c-3.12 0-5.947 1.266-7.993 3.313A11.266 11.266 0 0 0 3.996.008v3.996H.999c-.55 0-.999.45-.999.999V16.99c0 .55.45 1 .999 1H9.99a1.997 1.997 0 1 0 3.996 0h8.992c.549 0 .999-.45.999-1V5.003c0-.548-.45-1-1-1zm-9.99 1.143l.413-.414a9.238 9.238 0 0 1 4.581-2.512v8.61a13.158 13.158 0 0 0-4.995 1.858V5.147zM5.993 2.221a9.231 9.231 0 0 1 4.581 2.513l.414.414v7.54a13.148 13.148 0 0 0-4.995-1.857v-8.61zm15.984 13.771H1.998v-9.99h1.998v6.679c3.12 0 5.946 1.266 7.992 3.311a11.273 11.273 0 0 1 7.993-3.311V6.002h1.997v9.99z"/>
    </g>
</symbol><symbol id="icon-01-normal-team" viewBox="0 0 24 17">
    <path fill-opacity=".5" fill-rule="evenodd" d="M16.079 9.659a8.437 8.437 0 0 0-2.294-1.496c.311-.31.58-.663.796-1.048a2.677 2.677 0 0 0 3.768-2.44 2.677 2.677 0 0 0-3.866-2.395A4.818 4.818 0 0 0 12.91.707 4.752 4.752 0 0 1 15.41 0a4.786 4.786 0 0 1 4.78 4.78c0 1.32-.537 2.517-1.405 3.383 2.962 1.303 5.035 4.265 5.035 7.702 0 .582-.472 1.053-1.054 1.053h-5c.582 0 1.054-.471 1.054-1.053 0-.343-.021-.682-.061-1.015h2.672a6.318 6.318 0 0 0-5.352-5.191zm-4.294-1.496c2.962 1.303 5.035 4.265 5.035 7.702 0 .582-.472 1.053-1.054 1.053H1.053A1.053 1.053 0 0 1 0 15.865c0-3.437 2.073-6.399 5.034-7.702A4.766 4.766 0 0 1 3.63 4.781 4.786 4.786 0 0 1 8.409 0a4.786 4.786 0 0 1 4.782 4.78c0 1.32-.538 2.517-1.406 3.383zM8.375 2A2.677 2.677 0 0 0 5.7 4.674C5.7 6.15 6.9 7.35 8.374 7.35c1.475 0 2.675-1.2 2.675-2.675C11.049 3.2 9.849 2 8.374 2zM2.1 14.95h12.43A6.313 6.313 0 0 0 8.316 9.7 6.313 6.313 0 0 0 2.1 14.95z"/>
</symbol><symbol id="icon-01-normal-tickets" viewBox="0 0 18 22">
    <path fill-opacity=".5" fill-rule="evenodd" d="M15 3h1a2 2 0 0 1 2 2v15a2 2 0 0 1-2 2H2a2 2 0 0 1-2-2V5a2 2 0 0 1 2-2h1a2 2 0 0 1 2-2h.996C6.748.363 7.839 0 9 0c1.16 0 2.252.363 3.004 1H13a2 2 0 0 1 2 2zM3.268 5H2v15h14V5h-1.268A2 2 0 0 1 13 6H5a2 2 0 0 1-1.732-1zm3.889-2.345l-.3.345H5v1h8V3h-1.858l-.299-.345C10.515 2.277 9.811 2 9 2c-.81 0-1.515.277-1.843.655zM5 15v-2h6v2H5zm0-4V9h8v2H5z"/>
</symbol><symbol id="icon-actions" viewBox="0 0 16 13">
    <path d="M5.818 7.273h8.727V5.09H5.818v2.182zm-1.454 0V5.09h-2.91v2.182h2.91zm1.454-5.818v2.181h8.727V1.455H5.818zm-1.454 0h-2.91v2.181h2.91V1.455zm1.454 9.454h8.727V8.727H5.818v2.182zm-1.454 0V8.727h-2.91v2.182h2.91zM1.454 0h13.091C15.35 0 16 .651 16 1.455v9.454c0 .803-.651 1.455-1.455 1.455H1.455A1.455 1.455 0 0 1 0 10.909V1.455C0 .65.651 0 1.455 0z"/>
</symbol><symbol id="icon-add" viewBox="0 0 16 16">
    <path d="M8.727 7.273h2.182a.727.727 0 0 1 0 1.454H8.727v2.182a.727.727 0 0 1-1.454 0V8.727H5.09a.727.727 0 1 1 0-1.454h2.182V5.09a.727.727 0 1 1 1.454 0v2.182zM8 16A8 8 0 1 1 8 0a8 8 0 0 1 0 16zm0-1.455a6.545 6.545 0 1 0 0-13.09 6.545 6.545 0 0 0 0 13.09z"/>
</symbol><symbol id="icon-anonymize" viewBox="0 0 14 16">
    <path fill-rule="evenodd" d="M7.045 16C2.682 14.056.5 12.117.5 10.182V2.909c0-.727.364-.727 1.455-1.454C2.072 1.376 4.546 0 7.045 0c2.179 0 4 .727 5.091 1.455 1.091.727 1.455.727 1.455 1.454.02.212 0 6.182 0 7.273 0 1.94-2.182 3.879-6.546 5.818zm5.091-5.818l.002-.906.003-1.42.002-1.23a898.03 898.03 0 0 0 0-3.448c-.24-.15-.616-.381-.813-.513-1.074-.716-2.64-1.21-4.285-1.21-1.572 0-3.615.764-4.284 1.21-.196.13-.566.359-.806.508v7.009c0 1.097 1.62 2.595 5.091 4.22 3.47-1.621 5.09-3.119 5.09-4.22zM6.318 8.426L9.44 5.304l1.029 1.028-4.15 4.151-2.697-2.696 1.029-1.029 1.667 1.668z"/>
</symbol><symbol id="icon-assign-no" viewBox="0 0 23 24">
    <path fill-rule="evenodd" d="M5.74 12.815a6.97 6.97 0 0 1-2.342-5.532A6.983 6.983 0 0 1 10.02 0a6.983 6.983 0 0 1 6.62 7.283 6.984 6.984 0 0 1-6.62 7.283c-3.65 0-6.62 2.375-6.62 5.296a1.324 1.324 0 0 1-2.649 0c0-3.06 2.028-5.72 4.99-7.047zm4.28-10.167a4.347 4.347 0 0 0-3.972 4.635 4.347 4.347 0 0 0 3.972 4.634 4.347 4.347 0 0 0 3.972-4.634 4.347 4.347 0 0 0-3.972-4.635zm7.945 17.763l-2.926 2.926-1.873-1.873 2.926-2.926-2.926-2.926 1.873-1.873 2.926 2.926 2.926-2.926 1.872 1.873-2.926 2.926 2.926 2.926-1.872 1.873-2.926-2.926z"/>
</symbol><symbol id="icon-assign-plus" viewBox="0 0 16 16">
    <path fill-rule="evenodd" d="M11.093 13.241H8.334v-1.765h2.76V8.717h1.765v2.759h2.758v1.765H12.86V16h-1.766v-2.759zM3.827 8.544a4.647 4.647 0 0 1-1.561-3.689A4.656 4.656 0 0 1 6.679 0a4.656 4.656 0 0 1 4.414 4.855A4.656 4.656 0 0 1 6.68 9.71c-2.434 0-4.413 1.584-4.413 3.531a.883.883 0 0 1-1.766 0c0-2.04 1.352-3.813 3.327-4.697zm2.852-6.778a2.898 2.898 0 0 0-2.648 3.09 2.898 2.898 0 0 0 2.648 3.089 2.898 2.898 0 0 0 2.649-3.09 2.898 2.898 0 0 0-2.649-3.09z"/>
</symbol><symbol id="icon-assign" viewBox="0 0 19 22">
    <path fill-rule="evenodd" d="M13.566 12.8c2.983 1.32 5.027 3.99 5.027 7.062a1.324 1.324 0 0 1-2.648 0c0-2.921-2.97-5.296-6.62-5.296a1.35 1.35 0 0 1-.056 0c-3.65 0-6.62 2.375-6.62 5.296a1.324 1.324 0 0 1-2.649 0c0-3.06 2.028-5.72 4.99-7.047a6.97 6.97 0 0 1-2.342-5.532A6.983 6.983 0 0 1 9.27 0a6.983 6.983 0 0 1 6.62 7.283 6.97 6.97 0 0 1-2.323 5.516zM9.269 2.647a4.347 4.347 0 0 0-3.972 4.635 4.347 4.347 0 0 0 3.972 4.634 4.347 4.347 0 0 0 3.972-4.634A4.347 4.347 0 0 0 9.27 2.648z"/>
</symbol><symbol id="icon-attach" viewBox="0 0 16 16">
    <path fill-rule="evenodd" d="M9.074 3.635l1.14 1.123L5.16 9.89a.669.669 0 0 0 0 .934c.24.246.642.245.88 0l5.562-5.65a2.137 2.137 0 0 0 0-2.988c-.775-.79-2.145-.773-2.905.002L2.627 8.35a3.604 3.604 0 0 0 0 5.04c1.331 1.358 3.617 1.335 4.927-.001l7.08-7.19 1.14 1.123-7.078 7.188c-1.931 1.97-5.248 2.003-7.21 0a5.204 5.204 0 0 1 0-7.282l6.07-6.162c1.379-1.406 3.78-1.437 5.188 0a3.737 3.737 0 0 1 0 5.229l-5.559 5.646a2.217 2.217 0 0 1-3.168.003 2.27 2.27 0 0 1 .001-3.175l5.056-5.134z"/>
</symbol><symbol id="icon-back" viewBox="0 0 20 6">
    <path fill-rule="evenodd" d="M4 4v2L0 3l4-3v2h16v2H4z"/>
</symbol><symbol id="icon-calendar" viewBox="0 0 20 20">
    <path d="M18 6V3h-2v1h-2V3H6v1H4V3H2v3h16zm0 2H2v10h16V8zm-2-7h2a2 2 0 0 1 2 2v15a2 2 0 0 1-2 2H2a2 2 0 0 1-2-2V3a2 2 0 0 1 2-2h2V0h2v1h8V0h2v1zM7 12H5v-2h2v2zm4 0H9v-2h2v2zm4 0h-2v-2h2v2zm-8 4H5v-2h2v2zm4 0H9v-2h2v2z"/>
</symbol><symbol id="icon-categories" viewBox="0 0 20 20">
    <path fill-rule="evenodd" d="M0 0v5.455h5.455V0H0zm1.818 1.818h1.818v1.818H1.818V1.818zm5.455 0v1.818H20V1.818H7.273zM0 7.273v5.455h5.455V7.271H0zM1.818 9.09h1.818v1.818H1.818V9.091zm5.455 0v1.818H20V9.091H7.273zM0 14.545V20h5.455v-5.455H0zm1.818 1.819h1.818v1.818H1.818v-1.818zm5.455 0v1.818H20v-1.818H7.273z"/>
</symbol><symbol id="icon-chevron-down" viewBox="0 0 8 6">
    <path fill-rule="evenodd" d="M4.303 5.07l3.553-3.552a.434.434 0 0 0 .128-.309A.434.434 0 0 0 7.856.9L7.595.64a.437.437 0 0 0-.618 0L3.994 3.622 1.007.635a.434.434 0 0 0-.618 0L.128.897A.434.434 0 0 0 0 1.206c0 .117.045.226.128.309L3.684 5.07a.434.434 0 0 0 .31.127.434.434 0 0 0 .31-.127z"/>
</symbol><symbol id="icon-chevron-left" viewBox="0 0 20 20">
    <title>
        chevron-thin-left
    </title>
    <path d="M13.891 17.418c.268.272.268.709 0 .979s-.701.271-.969 0l-7.83-7.908a.697.697 0 0 1 0-.979l7.83-7.908c.268-.27.701-.27.969 0s.268.709 0 .979L6.75 10l7.141 7.418z"/>
</symbol><symbol id="icon-chevron-right" viewBox="0 0 20 20">
    <title>
        chevron-thin-right
    </title>
    <path d="M13.25 10L6.109 2.58a.697.697 0 0 1 0-.979.68.68 0 0 1 .969 0l7.83 7.908a.697.697 0 0 1 0 .979l-7.83 7.908c-.268.271-.701.27-.969 0s-.268-.707 0-.979L13.25 10z"/>
</symbol><symbol id="icon-close-mobile" viewBox="0 0 16 16">
    <path fill-rule="evenodd" d="M1.414 15.414L0 14l6.293-6.293L0 1.414 1.414 0l6.293 6.293L14 0l1.414 1.414-6.293 6.293L15.414 14 14 15.414 7.707 9.121z"/>
</symbol><symbol id="icon-close" viewBox="0 0 6 6">
    <path fill-rule="evenodd" d="M5.828 4.996L3.833 3l1.995-1.996a.589.589 0 0 0-.832-.832L3 2.167 1.004.172a.589.589 0 0 0-.832.832L2.167 3 .172 4.996a.589.589 0 0 0 .832.832L3 3.833l1.996 1.995a.589.589 0 0 0 .832-.832z"/>
</symbol><symbol id="icon-cross" viewBox="0 0 6 6">
    <path d="M3.938 2.91l1.667 1.667a.727.727 0 0 1-1.028 1.028L2.909 3.938 1.242 5.605A.727.727 0 0 1 .213 4.577l1.668-1.668L.213 1.242A.727.727 0 1 1 1.242.213l1.667 1.668L4.577.213a.727.727 0 0 1 1.028 1.029L3.938 2.909z"/>
</symbol><symbol id="icon-delete" viewBox="0 0 15 16">
    <path fill-rule="evenodd" d="M3.636 2.182v-.727C3.636.65 4.288 0 5.091 0h4.364c.803 0 1.454.651 1.454 1.455v.727h2.182c.803 0 1.454.651 1.454 1.454v1.455c0 .803-.65 1.454-1.454 1.454h-.058l-.67 8c0 .804-.65 1.455-1.454 1.455H3.636c-.803 0-1.454-.651-1.452-1.394l-.671-8.06h-.058A1.455 1.455 0 0 1 0 5.09V3.636c0-.803.651-1.454 1.455-1.454h2.181zm0 1.454H1.455v1.455H13.09V3.636H3.636zm-.664 2.91l.664 8h7.273l.003-.06.661-7.94H2.972zm6.483-4.364v-.727H5.09v.727h4.364z"/>
</symbol><symbol id="icon-dismiss" viewBox="0 0 16 16">
    <path d="M8 16A8 8 0 1 1 8 0a8 8 0 0 1 0 16zm0-1.455a6.545 6.545 0 1 0 0-13.09 6.545 6.545 0 0 0 0 13.09zm0-7.574L9.543 5.43a.727.727 0 0 1 1.028 1.028L9.03 8l1.542 1.543a.727.727 0 1 1-1.028 1.028L8 9.03l-1.543 1.54A.727.727 0 1 1 5.43 9.543L6.97 8 5.43 6.457A.727.727 0 0 1 6.457 5.43L8 6.97z"/>
</symbol><symbol id="icon-document" viewBox="0 0 20 24">
    <path d="M13.793 0l6.093 6.094v15.724A2.182 2.182 0 0 1 17.705 24H2.432A2.182 2.182 0 0 1 .25 21.818V2.182C.25.977 1.227 0 2.432 0h11.36zm-2.634 2.181H2.432v19.637h15.273l-.001-13.091h-4.363a2.182 2.182 0 0 1-2.182-2.182V2.181zm1.091 13.092v2.182H5.705v-2.182h6.545zm2.182-4.364v2.182H5.705v-2.182h8.727zM13.34 2.632v3.913h3.912L13.34 2.632z"/>
</symbol><symbol id="icon-down" viewBox="0 0 8 6">
    <path fill-rule="evenodd" d="M4.303 5.07l3.553-3.552a.434.434 0 0 0 .128-.309A.434.434 0 0 0 7.856.9L7.595.64a.437.437 0 0 0-.618 0L3.994 3.622 1.007.635a.434.434 0 0 0-.618 0L.128.897A.434.434 0 0 0 0 1.206c0 .117.045.226.128.309L3.684 5.07a.434.434 0 0 0 .31.127.434.434 0 0 0 .31-.127z"/>
</symbol><symbol id="icon-edit-ticket" viewBox="0 0 16 16">
    <path fill-rule="evenodd" d="M10.242 3.556L5.357 8.44c-.324.286-.525.687-.557 1.054v1.708l1.651.002c.428-.03.825-.23 1.145-.595l4.85-4.85-2.204-2.203zm1.131-1.131l2.204 2.203.715-.715a.37.37 0 0 0 0-.522l-1.683-1.683a.365.365 0 0 0-.518 0l-.718.717zM16 8.8v5.6a1.6 1.6 0 0 1-1.6 1.6H1.6A1.6 1.6 0 0 1 0 14.4V1.6A1.6 1.6 0 0 1 1.6 0h5.6v1.6H1.6v12.8h12.8V8.8H16zM12.35 0c.524 0 1.026.21 1.392.579l1.681 1.68a1.97 1.97 0 0 1 0 2.786l-6.657 6.654c-.559.645-1.35 1.04-2.258 1.103H3.2v-.8l.003-2.572A3.238 3.238 0 0 1 4.26 7.275L10.956.58c.37-.371.87-.58 1.394-.58z"/>
</symbol><symbol id="icon-edit" viewBox="0 0 16 16">
    <path d="M8.727 1.756L1.455 9.029v1.88h1.88l7.273-7.273-1.88-1.88zM9.242.213l2.909 2.91a.727.727 0 0 1 0 1.028l-8 8a.727.727 0 0 1-.515.213H.727A.727.727 0 0 1 0 11.636V8.727c0-.193.077-.378.213-.514l8-8a.727.727 0 0 1 1.029 0zM.8 16c-.442 0-.8-.326-.8-.727 0-.402.358-.728.8-.728h14.4c.442 0 .8.326.8.728 0 .401-.358.727-.8.727H.8z"/>
</symbol><symbol id="icon-export" viewBox="0 0 16 16">
    <path fill-rule="evenodd" d="M16 11.2v3.2a1.6 1.6 0 0 1-1.6 1.6H1.6A1.6 1.6 0 0 1 0 14.4v-3.2h1.6v3.2h12.8v-3.2H16zm-8.512-.015L4.229 7.927a.817.817 0 0 1 1.155-1.155l1.872 1.872V.817a.817.817 0 0 1 1.633 0v7.827l1.873-1.872a.817.817 0 0 1 1.155 1.155l-3.26 3.258a.814.814 0 0 1-1.17 0z"/>
</symbol><symbol id="icon-eye-close" viewBox="0 0 16 12">
    <path fill-rule="evenodd" d="M.07 5.702c.094-.188.27-.5.526-.897.424-.657.925-1.313 1.501-1.928C3.774 1.088 5.747 0 8 0c2.253 0 4.226 1.088 5.903 2.877a13.596 13.596 0 0 1 2.027 2.825.667.667 0 0 1 0 .596c-.094.188-.27.5-.526.897a13.661 13.661 0 0 1-1.501 1.928C12.226 10.912 10.253 12 8 12c-2.253 0-4.226-1.088-5.903-2.877a13.661 13.661 0 0 1-1.5-1.928 9.934 9.934 0 0 1-.527-.897.667.667 0 0 1 0-.596zm1.646.77c.383.593.836 1.187 1.354 1.739 1.447 1.544 3.1 2.456 4.93 2.456 1.83 0 3.483-.912 4.93-2.456A12.342 12.342 0 0 0 14.573 6a12.342 12.342 0 0 0-1.643-2.21C11.483 2.244 9.83 1.332 8 1.332c-1.83 0-3.483.912-4.93 2.456A12.342 12.342 0 0 0 1.427 6c.084.145.18.303.29.472zM8 8.667a2.667 2.667 0 1 1 0-5.334 2.667 2.667 0 0 1 0 5.334zm0-1.334a1.333 1.333 0 1 0 0-2.666 1.333 1.333 0 0 0 0 2.666z"/>
</symbol><symbol id="icon-eye-open" viewBox="0 0 16 16">
    <path fill-rule="evenodd" d="M4.187 3.13C5.351 2.407 6.623 2 8 2c2.253 0 4.226 1.088 5.903 2.877a13.596 13.596 0 0 1 2.027 2.825.667.667 0 0 1 0 .596c-.094.188-.27.5-.526.897a13.661 13.661 0 0 1-1.501 1.928 11.81 11.81 0 0 1-.877.846L16 14.943 14.943 16l-3.13-3.13C10.649 13.593 9.377 14 8 14c-2.253 0-4.226-1.088-5.903-2.877a13.661 13.661 0 0 1-1.5-1.928 9.934 9.934 0 0 1-.527-.897.667.667 0 0 1 0-.596c.094-.188.27-.5.526-.897.424-.657.925-1.313 1.501-1.928.284-.303.576-.585.877-.846L0 1.057 1.057 0l3.13 3.13zm.975.975l1.556 1.556a2.667 2.667 0 0 1 3.62 3.62l1.742 1.742c.29-.246.574-.518.85-.812A12.342 12.342 0 0 0 14.573 8a12.342 12.342 0 0 0-1.643-2.21C11.483 4.244 9.83 3.332 8 3.332c-1 0-1.948.273-2.838.772zm2.585 2.586L9.31 8.253A1.333 1.333 0 0 0 7.747 6.69zm3.091 5.204l-1.556-1.556a2.667 2.667 0 0 1-3.62-3.62L3.92 4.976c-.29.246-.574.518-.85.812A12.342 12.342 0 0 0 1.427 8a12.342 12.342 0 0 0 1.643 2.21c1.447 1.545 3.1 2.457 4.93 2.457 1 0 1.948-.273 2.838-.772zM8.253 9.309L6.69 7.747A1.333 1.333 0 0 0 8.253 9.31z"/>
</symbol><symbol id="icon-filters" viewBox="0 0 16 16">
    <path d="M9.237 8.404l4.2-4.584H2.563l4.2 4.584h2.474zM8.8 9.932H7.2v3.863l1.6-.573v-3.29zm-7.2-7.64h12.8v-.764H1.6v.764zm4 7.163L0 3.343V1.528C0 .684.716 0 1.6 0h12.8c.884 0 1.6.684 1.6 1.528v1.815l-5.6 6.112v4.826L5.6 16V9.455z"/>
</symbol><symbol id="icon-folder" viewBox="0 0 22 18">
    <path d="M8 0c1.12 0 1.833.475 2.549 1.379.048.06.261.337.313.402.158.195.19.219.14.219H18a2 2 0 0 1 2 2v1a2 2 0 0 1 2 2l-.024.217-1.98 8.91A2 2 0 0 1 18 18H2a2 2 0 0 1-2-2V2a2 2 0 0 1 2-2h6zm11.976 7H4.036a4.6 4.6 0 0 0-.06.217L2.024 16H18l.024-.217L19.976 7zM8 2H2v4.89l.03-.13C2.31 5.621 2.832 5 4 5h14V4h-7.005c-.719-.004-1.186-.34-1.69-.963-.069-.086-.29-.373-.323-.416C8.607 2.15 8.384 2 8 2z" fill-rule="evenodd"/>
</symbol><symbol id="icon-info" viewBox="0 0 16 16">
    <path fill-rule="evenodd" d="M8 14.5a6.5 6.5 0 1 0 0-13 6.5 6.5 0 0 0 0 13zM8 16A8 8 0 1 1 8 0a8 8 0 0 1 0 16zm1-4H7V7h2v5zM7.997 6a1 1 0 1 1 0-2 1 1 0 0 1 0 2z"/>
</symbol><symbol id="icon-inquiries" viewBox="0 0 40 40">
    <path fill-rule="evenodd" d="M39.275 4.563l-4.687 2.344-1.049-2.096 4.688-2.344 1.048 2.096zm-1.048 18.752l-4.688-2.344 1.048-2.096 4.688 2.344-1.048 2.096zm-2.993-11.596H40v2.344h-4.766v-2.344zM1.774 2.467l4.687 2.344-1.048 2.096L.726 4.564l1.048-2.097zm0 20.847l-1.05-2.096 4.688-2.344L6.46 20.97l-4.688 2.344zM0 11.719h4.766v2.344H0v-2.344zm16.484 25.937h7.032V40h-7.032v-2.344zm16.407-24.765c0 4.846-2.736 9.266-7.032 11.465v3.769h2.344v2.344H25.86v4.843H14.141V30.47h-2.344v-2.344h2.344v-3.769c-4.296-2.199-7.032-6.619-7.032-11.465C7.11 5.783 12.892 0 20 0s12.89 5.783 12.89 12.89zm-9.375 20.078v-2.5h-7.032v2.5h7.032zm-4.688-17.735c0 .646.526 1.172 1.172 1.172.646 0 1.172-.526 1.172-1.172a1.173 1.173 0 0 0-2.344 0zm2.344 12.891h2.344v-5.274l.7-.308c3.846-1.688 6.33-5.477 6.33-9.652 0-5.816-4.73-10.547-10.546-10.547-5.815 0-10.547 4.731-10.547 10.547 0 4.175 2.485 7.964 6.33 9.652l.701.308v5.274h2.344v-9.576a3.521 3.521 0 0 1-2.344-3.315A3.52 3.52 0 0 1 20 11.72a3.52 3.52 0 0 1 3.516 3.515c0 1.528-.98 2.83-2.344 3.315v9.576z"/>
</symbol><symbol id="icon-knowledge" viewBox="0 0 24 20">
    <path fill-rule="evenodd" d="M22.978 4.004H19.98V.008c-3.12 0-5.947 1.266-7.993 3.313A11.266 11.266 0 0 0 3.996.008v3.996H.999c-.55 0-.999.45-.999.999V16.99c0 .55.45 1 .999 1H9.99a1.997 1.997 0 1 0 3.996 0h8.992c.549 0 .999-.45.999-1V5.003c0-.548-.45-1-1-1zm-9.99 1.143l.413-.414a9.238 9.238 0 0 1 4.581-2.512v8.61a13.158 13.158 0 0 0-4.995 1.858V5.147zM5.993 2.221a9.231 9.231 0 0 1 4.581 2.513l.414.414v7.54a13.148 13.148 0 0 0-4.995-1.857v-8.61zm15.984 13.771H1.998v-9.99h1.998v6.679c3.12 0 5.946 1.266 7.992 3.311a11.273 11.273 0 0 1 7.993-3.311V6.002h1.997v9.99z"/>
</symbol><symbol id="icon-label" viewBox="0 0 16 12">
    <path d="M12.992 6L16 12H1.719C.769 12 0 11.232 0 10.286V1.714C0 .768.77 0 1.719 0H16l-3.008 6z"/>
</symbol><symbol id="icon-lock" viewBox="0 0 14 16">
    <path fill-rule="evenodd" d="M3 6.4V4a4 4 0 1 1 8 0v2.4h.8c.855 0 1.6.621 1.6 1.467v6.666c0 .846-.745 1.467-1.6 1.467H2.2c-.855 0-1.6-.621-1.6-1.467V7.867C.6 7.02 1.345 6.4 2.2 6.4H3zm1.6 0h4.8V4a2.4 2.4 0 1 0-4.8 0v2.4zM2.2 8v6.4h9.6V8H2.2zm5 4.4a1 1 0 1 1 0-2 1 1 0 0 1 0 2z"/>
</symbol><symbol id="icon-log-out" viewBox="0 0 16 16">
    <path fill-rule="evenodd" d="M4.864 16H1.621A1.61 1.61 0 0 1 0 14.4V1.6C0 .716.726 0 1.621 0h3.243v1.6H1.621v12.8h3.243V16zm10.813-7.691l-3.259 3.302a.809.809 0 0 1-1.145-.01.835.835 0 0 1-.01-1.16l1.873-1.897H5.308a.822.822 0 0 1-.817-.828c0-.457.366-.827.817-.827h7.828L11.263 4.99a.835.835 0 0 1 .01-1.16.809.809 0 0 1 1.145-.01l3.259 3.302a.83.83 0 0 1 .247.593.83.83 0 0 1-.247.593z"/>
</symbol><symbol id="icon-mail-small" viewBox="0 0 16 14">
    <path fill-rule="evenodd" d="M14.545 3.787V2.055H1.455v1.732L8 7.06l6.545-3.273zm0 1.626L8 8.686 1.455 5.413v6.823h13.09V5.413zM1.455.6h13.09C15.35.6 16 1.251 16 2.055v10.181c0 .804-.651 1.455-1.455 1.455H1.455A1.455 1.455 0 0 1 0 12.236V2.055C0 1.25.651.6 1.455.6z"/>
</symbol><symbol id="icon-mail" viewBox="0 0 22 18">
    <path fill-rule="evenodd" d="M20 4.382V2H2v2.382l9 4.5 9-4.5zm0 2.237l-9 4.5-9-4.5V16h18V6.619zM2 0h18a2 2 0 0 1 2 2v14a2 2 0 0 1-2 2H2a2 2 0 0 1-2-2V2a2 2 0 0 1 2-2z"/>
</symbol><symbol id="icon-menu-mobile" viewBox="0 0 16 14">
    <path fill-rule="evenodd" d="M16 12v2H0v-2h16zm0-6v2H0V6h16zm0-6v2H0V0h16z"/>
</symbol><symbol id="icon-menu" viewBox="0 0 20 14">
    <path fill-rule="evenodd" d="M4 8v2L0 7l4-3v2h16v2H4zm16 4v2H6v-2h14zm0-12v2H6V0h14z"/>
</symbol><symbol id="icon-merge" viewBox="0 0 16 16">
    <path fill-rule="evenodd" d="M10.967 10.667v3.81c0 .877-.646 1.523-1.524 1.523h-7.62C.947 16 .3 15.354.3 14.476V6.857c0-.878.646-1.524 1.524-1.524H5.11v-3.81C5.11.647 5.755 0 6.633 0h7.62c.877 0 1.523.646 1.523 1.524v7.619c0 .878-.646 1.524-1.524 1.524h-3.285zm-1.524 0h-2.81c-.878 0-1.523-.646-1.523-1.524V6.857H1.824v7.62h7.619v-3.81zm1.524-1.524h3.285v-7.62H6.633v3.81h2.81c.878 0 1.524.646 1.524 1.524v2.286zm-1.524 0V6.857h-2.81v2.286h2.81z"/>
</symbol><symbol id="icon-move-to" viewBox="0 0 16 16">
    <path fill-rule="evenodd" d="M11.227 1.756v2.608h2.608l-2.608-2.608zm2.909 4.062h-2.909a1.454 1.454 0 0 1-1.454-1.454V1.455H1.955v13.091h12.181V5.818zM1.955 0h9.573l4.063 4.063v10.483c0 .803-.652 1.454-1.455 1.454H1.955A1.454 1.454 0 0 1 .5 14.546V1.455C.5.652 1.151 0 1.955 0zm7.366 9.831H4.32a.335.335 0 0 1-.334-.334v-.786c0-.184.15-.334.334-.334h5.001l-.941-.941 1.029-1.028 2.342 2.342a.5.5 0 0 1 0 .708L9.409 11.8 8.38 10.772l.941-.941z"/>
</symbol><symbol id="icon-no-photo" viewBox="0 0 78 115">
    <path d="M76.141 115H1.857A1.859 1.859 0 0 1 0 113.142V68.955c0-2.721 1.839-5.175 4.685-6.247l20.146-7.589a1.857 1.857 0 0 1 2.27.82l10.746 18.876c.33.58.966.624 1.154.624.188 0 .822-.045 1.152-.623l10.75-18.876a1.857 1.857 0 0 1 2.33-.794l20.36 8.522c2.676 1.12 4.407 3.53 4.407 6.136v43.338A1.86 1.86 0 0 1 76.141 115zm-72.427-3.715h70.57V69.804c0-1.122-.813-2.16-2.126-2.709l-18.843-7.888-9.937 17.448c-.89 1.565-2.527 2.5-4.377 2.5-1.852 0-3.49-.933-4.38-2.5l-9.965-17.497-18.661 7.03c-1.386.52-2.28 1.606-2.28 2.767v42.33zM39 52c-13.233 0-24-10.118-24-22.554v-6.892C15 10.118 25.767 0 39 0c13.23 0 24 10.118 24 22.554v6.892C63 41.883 52.231 52 39 52zm0-48.247c-11.146 0-20.212 8.435-20.212 18.8v6.893c0 10.366 9.068 18.801 20.211 18.801 11.143 0 20.213-8.435 20.213-18.8v-6.893c0-10.366-9.068-18.801-20.213-18.801z"/>
</symbol><symbol id="icon-note" viewBox="0 0 16 16">
    <path d="M14.4 10.4V1.6H1.6v12.8h8.8V12a1.6 1.6 0 0 1 1.6-1.6h2.4zm-.331 1.6H12v2.069L14.069 12zM1.6 16A1.6 1.6 0 0 1 0 14.4V1.6A1.6 1.6 0 0 1 1.6 0h12.8A1.6 1.6 0 0 1 16 1.6v10.731L12.331 16H1.6zM4 12v-1.6h4.8V12H4zm0-3.2V7.2h8v1.6H4zm0-3.2V4h8v1.6H4z" fill-rule="evenodd"/>
</symbol><symbol id="icon-notes-2" viewBox="0 0 16 16">
    <g fill-rule="evenodd">
        <path d="M0 0h16v16H0z"/>
        <path d="M14.4 10.4V1.6H1.6v12.8h8.8V12a1.6 1.6 0 0 1 1.6-1.6h2.4zm-.331 1.6H12v2.069L14.069 12zM1.6 16A1.6 1.6 0 0 1 0 14.4V1.6A1.6 1.6 0 0 1 1.6 0h12.8A1.6 1.6 0 0 1 16 1.6v10.731L12.331 16H1.6zM4 12v-1.6h4.8V12H4zm0-3.2V7.2h8v1.6H4zm0-3.2V4h8v1.6H4z"/>
    </g>
</symbol><symbol id="icon-notification" viewBox="0 0 20 22">
    <path fill-rule="evenodd" d="M8.135 1.276a2 2 0 0 1 3.73.002C14.762 2.123 17 4.94 17 9c0 2.625.532 4.102 1.515 5.177.244.266 1.101 1.038 1.197 1.135l.288.292v3.41h-6.126a3.941 3.941 0 0 1-1.786 2.409 4.008 4.008 0 0 1-4.176 0c-1.042-.636-1.618-1.347-1.824-2.409H0v-3.41l.288-.292c.104-.105.956-.87 1.198-1.133C2.469 13.11 3 11.634 3 9c0-4.07 2.235-6.882 5.135-7.724zm.044 17.738c.14.263.382.461.775.701.642.392 1.45.392 2.092 0 .297-.181.53-.421.69-.7H8.18zM18 16.452c-.298-.275-.75-.695-.96-.925C15.706 14.07 15 12.107 15 9c0-3.769-2.34-5.988-5-5.988C7.333 3.012 5 5.22 5 9c0 3.118-.706 5.08-2.042 6.533-.21.228-.662.648-.958.92v.561h16v-.562z"/>
</symbol><symbol id="icon-pause" viewBox="0 0 16 16">
    <path fill-rule="evenodd" d="M8 16A8 8 0 1 1 8 0a8 8 0 0 1 0 16zm0-1.455a6.545 6.545 0 1 0 0-13.09 6.545 6.545 0 0 0 0 13.09zM5.818 4.364h1.455v7.272H5.818V4.364zm2.91 0h1.454v7.272H8.727V4.364z"/>
</symbol><symbol id="icon-pin" viewBox="0 0 10 16">
    <path fill-rule="evenodd" d="M8 8V1.6h.8V0h-8v1.6h.8V8L0 9.6v1.6h4.16V16h1.28v-4.8H9.6V9.6L8 8zM2.24 9.6l.96-.96V1.6h3.2v7.04l.96.96H2.24z"/>
</symbol><symbol id="icon-print" viewBox="0 0 16 16">
    <path fill-rule="evenodd" d="M3.2 13.6H1.6A1.6 1.6 0 0 1 0 12V5.6A1.6 1.6 0 0 1 1.6 4h1.6V0h9.6v4h1.6A1.6 1.6 0 0 1 16 5.6V12a1.6 1.6 0 0 1-1.6 1.6h-1.6V16H3.2v-2.4zm0-1.6v-1.6h9.6V12h1.6V5.6H1.6V12h1.6zm1.6-8h6.4V1.6H4.8V4zm6.4 8H4.8v2.4h6.4V12zm1.6-5.6a.8.8 0 1 1 0 1.6.8.8 0 0 1 0-1.6z"/>
</symbol><symbol id="icon-priority" viewBox="0 0 16 16">
    <path fill-rule="evenodd" d="M3.498 15.396L.239 12.137a.817.817 0 0 1 1.155-1.155l1.872 1.873V5.027a.817.817 0 0 1 1.634 0v7.828l1.872-1.873a.817.817 0 0 1 1.155 1.155l-3.26 3.259a.814.814 0 0 1-1.169 0zM10.796.246a.814.814 0 0 1 1.17 0l3.258 3.26A.817.817 0 0 1 14.07 4.66l-1.873-1.872v7.828a.817.817 0 0 1-1.633 0V2.788L8.692 4.66a.817.817 0 0 1-1.155-1.154l3.259-3.26z"/>
</symbol><symbol id="icon-refresh" viewBox="0 0 16 16">
    <path fill-rule="evenodd" d="M12.646 4C11.557 2.463 9.915 1.6 8 1.6A6.4 6.4 0 0 0 1.6 8H0a8 8 0 0 1 8-8c2.243 0 4.22.946 5.6 2.616V0h1.6v5.6H9.6V4h3.046zm-9.292 8C4.443 13.537 6.085 14.4 8 14.4A6.4 6.4 0 0 0 14.4 8H16a8 8 0 0 1-8 8c-2.243 0-4.22-.946-5.6-2.616V16H.8v-5.6h5.6V12H3.354z"/>
</symbol><symbol id="icon-reports" viewBox="0 0 22 18">
    <path fill-rule="evenodd" d="M2 0h18a2 2 0 0 1 2 2v14a2 2 0 0 1-2 2H2a2 2 0 0 1-2-2V2a2 2 0 0 1 2-2zm0 2v14h18V2H2zm6 12H6V8h2v6zm4 0h-2V4h2v10zm4 0h-2V7h2v7z"/>
</symbol><symbol id="icon-search-type-knowledge" viewBox="0 0 24 20">
    <path d="M22.978 4.004H19.98V.008c-3.12 0-5.947 1.266-7.993 3.313A11.266 11.266 0 0 0 3.996.008v3.996H.999c-.55 0-.999.45-.999.999V16.99c0 .55.45 1 .999 1H9.99a1.997 1.997 0 1 0 3.996 0h8.992c.549 0 .999-.45.999-1V5.003c0-.548-.45-1-1-1zm-9.99 1.143l.413-.414a9.238 9.238 0 0 1 4.581-2.512v8.61a13.158 13.158 0 0 0-4.995 1.858V5.147zM5.993 2.221a9.231 9.231 0 0 1 4.581 2.513l.414.414v7.54a13.148 13.148 0 0 0-4.995-1.857v-8.61zm15.984 13.771H1.998v-9.99h1.998v6.679c3.12 0 5.946 1.266 7.992 3.311a11.273 11.273 0 0 1 7.993-3.311V6.002h1.997v9.99z" fill-rule="evenodd"/>
</symbol><symbol id="icon-search-type-team" viewBox="0 0 24 17">
    <path fill-rule="evenodd" d="M16.079 9.659a8.437 8.437 0 0 0-2.294-1.496c.311-.31.58-.663.796-1.048a2.677 2.677 0 0 0 3.768-2.44 2.677 2.677 0 0 0-3.866-2.395A4.818 4.818 0 0 0 12.91.707 4.752 4.752 0 0 1 15.41 0a4.786 4.786 0 0 1 4.78 4.78c0 1.32-.537 2.517-1.405 3.383 2.962 1.303 5.035 4.265 5.035 7.702 0 .582-.472 1.053-1.054 1.053h-5c.582 0 1.054-.471 1.054-1.053 0-.343-.021-.682-.061-1.015h2.672a6.318 6.318 0 0 0-5.352-5.191zm-4.294-1.496c2.962 1.303 5.035 4.265 5.035 7.702 0 .582-.472 1.053-1.054 1.053H1.053A1.053 1.053 0 0 1 0 15.865c0-3.437 2.073-6.399 5.034-7.702A4.766 4.766 0 0 1 3.63 4.781 4.786 4.786 0 0 1 8.409 0a4.786 4.786 0 0 1 4.782 4.78c0 1.32-.538 2.517-1.406 3.383zM8.375 2A2.677 2.677 0 0 0 5.7 4.674C5.7 6.15 6.9 7.35 8.374 7.35c1.475 0 2.675-1.2 2.675-2.675C11.049 3.2 9.849 2 8.374 2zM2.1 14.95h12.43A6.313 6.313 0 0 0 8.316 9.7 6.313 6.313 0 0 0 2.1 14.95z"/>
</symbol><symbol id="icon-search-type-templates" viewBox="0 0 20 20">
    <path fill-rule="evenodd" d="M17.852 8l1.356.753c1.056.587 1.056 1.907 0 2.494L17.852 12l1.356.753c1.056.587 1.056 1.907 0 2.494l-8.051 4.473c-.673.373-1.641.373-2.314 0l-8.05-4.473c-1.057-.587-1.057-1.907 0-2.494L2.147 12l-1.356-.753c-1.056-.587-1.056-1.907 0-2.494L2.148 8 .792 7.247C-.264 6.66-.264 5.34.792 4.753L8.843.28c.673-.373 1.641-.373 2.314 0l8.05 4.473c1.057.587 1.057 1.907 0 2.494L17.853 8zm-2.059 1.144l-4.636 2.576c-.673.373-1.641.373-2.314 0L4.207 9.144 2.667 10l7.148 3.971a.616.616 0 0 0 .37 0L17.334 10l-1.541-.856zm0 4l-4.636 2.576c-.673.373-1.641.373-2.314 0l-4.636-2.576-1.54.856 7.148 3.971a.616.616 0 0 0 .37 0L17.334 14l-1.541-.856zM10.185 2.029a.616.616 0 0 0-.37 0L2.666 6l7.149 3.971a.616.616 0 0 0 .37 0L17.334 6l-7.149-3.971z"/>
</symbol><symbol id="icon-search-type-tickets" viewBox="0 0 18 22">
    <path fill-rule="evenodd" d="M15 3h1a2 2 0 0 1 2 2v15a2 2 0 0 1-2 2H2a2 2 0 0 1-2-2V5a2 2 0 0 1 2-2h1a2 2 0 0 1 2-2h.996C6.748.363 7.839 0 9 0c1.16 0 2.252.363 3.004 1H13a2 2 0 0 1 2 2zM3.268 5H2v15h14V5h-1.268A2 2 0 0 1 13 6H5a2 2 0 0 1-1.732-1zm3.889-2.345l-.3.345H5v1h8V3h-1.858l-.299-.345C10.515 2.277 9.811 2 9 2c-.81 0-1.515.277-1.843.655zM5 15v-2h6v2H5zm0-4V9h8v2H5z"/>
</symbol><symbol id="icon-search" viewBox="0 0 20 20">
    <path fill-rule="evenodd" d="M14.32 12.906l5.387 5.387-1.414 1.414-5.387-5.387a8 8 0 1 1 1.414-1.414zM8 14A6 6 0 1 0 8 2a6 6 0 0 0 0 12z"/>
</symbol><symbol id="icon-select" viewBox="0 0 6 12">
    <path d="M3 12l3-4H0zM3 0l3 4H0z" fill-rule="evenodd"/>
</symbol><symbol id="icon-settings" viewBox="0 0 22 22">
    <path fill-rule="evenodd" d="M19.873 17.68l-2.217 2.217-2.838-.79-.811.334L12.55 22H9.415l-1.449-2.567-.81-.34-2.838.781-2.216-2.216.79-2.838-.334-.811L0 12.55V9.415l2.568-1.449.34-.81-.781-2.838 2.215-2.215 2.838.791.81-.334L9.446 0h3.136l1.449 2.568.81.34 2.837-.781 2.22 2.215-.792 2.839.335.81L22 9.447v3.136l-2.567 1.448-.34.813.78 2.837zm-2.892-2.972l.872-2.082L20 11.414v-.804l-2.147-1.22-.859-2.083.662-2.375-.569-.568-2.383.655-2.08-.872L11.413 2h-.804L9.39 4.147l-2.083.859-2.376-.663-.566.566.655 2.383-.872 2.08L2 10.583v.805l2.145 1.222.859 2.083-.662 2.376.567.567 2.383-.655 2.08.872 1.21 2.146h.805l1.222-2.145 2.083-.859 2.376.662.568-.568-.655-2.381zM11 15a4 4 0 1 1 0-8 4 4 0 0 1 0 8zm0-2a2 2 0 1 0 0-4 2 2 0 0 0 0 4z"/>
</symbol><symbol id="icon-star-filled" viewBox="0 0 84 15">
    <path d="M8 12.438L3.056 15 4 9.573 0 5.729l5.528-.791L8 0l2.472 4.938L16 5.729l-4 3.844.944 5.427zm17 0L20.056 15 21 9.573l-4-3.844 5.528-.791L25 0l2.472 4.938L33 5.729l-4 3.844.944 5.427zm17 0L37.056 15 38 9.573l-4-3.844 5.528-.791L42 0l2.472 4.938L50 5.729l-4 3.844.944 5.427zm17 0L54.056 15 55 9.573l-4-3.844 5.528-.791L59 0l2.472 4.938L67 5.729l-4 3.844.944 5.427zm17 0L71.056 15 72 9.573l-4-3.844 5.528-.791L76 0l2.472 4.938L84 5.729l-4 3.844.944 5.427z" fill-rule="evenodd"/>
</symbol><symbol id="icon-star-half" viewBox="0 0 16 15">
    <g fill-rule="evenodd">
        <path d="M8 0l2.472 4.938L16 5.729l-4 3.844.944 5.427L8 12.438 3.056 15 4 9.573 0 5.729l5.528-.791L8 0zm0 3.057L6.44 6.174l-3.491.5 2.525 2.427-.596 3.426L8 10.91l3.122 1.618-.596-3.426 2.525-2.427-3.49-.5L8 3.057z"/>
        <path d="M8 12.438L3.056 15 4 9.573 0 5.729l5.528-.791L8 0z"/>
    </g>
</symbol><symbol id="icon-star-stroke" viewBox="0 0 84 15">
    <path d="M76 12.438L71.056 15 72 9.573l-4-3.844 5.528-.791L76 0l2.472 4.938L84 5.729l-4 3.844.944 5.427L76 12.438zm0-1.529l3.122 1.618-.596-3.426 2.525-2.427-3.49-.5L76 3.057l-1.56 3.117-3.491.5 2.525 2.427-.596 3.426L76 10.91zm-17 1.529L54.056 15 55 9.573l-4-3.844 5.528-.791L59 0l2.472 4.938L67 5.729l-4 3.844.944 5.427L59 12.438zm0-1.529l3.122 1.618-.596-3.426 2.525-2.427-3.49-.5L59 3.057l-1.56 3.117-3.491.5 2.525 2.427-.596 3.426L59 10.91zm-17 1.529L37.056 15 38 9.573l-4-3.844 5.528-.791L42 0l2.472 4.938L50 5.729l-4 3.844.944 5.427L42 12.438zm0-1.529l3.122 1.618-.596-3.426 2.525-2.427-3.49-.5L42 3.057l-1.56 3.117-3.491.5 2.525 2.427-.596 3.426L42 10.91zm-17 1.529L20.056 15 21 9.573l-4-3.844 5.528-.791L25 0l2.472 4.938L33 5.729l-4 3.844.944 5.427L25 12.438zm0-1.529l3.122 1.618-.596-3.426 2.525-2.427-3.49-.5L25 3.057l-1.56 3.117-3.491.5 2.525 2.427-.596 3.426L25 10.91zM8 12.438L3.056 15 4 9.573 0 5.729l5.528-.791L8 0l2.472 4.938L16 5.729l-4 3.844.944 5.427L8 12.438zm0-1.529l3.122 1.618-.596-3.426 2.525-2.427-3.49-.5L8 3.057 6.44 6.174l-3.491.5 2.525 2.427-.596 3.426L8 10.91z" fill-rule="evenodd"/>
</symbol><symbol id="icon-status" viewBox="0 0 14 16">
    <path fill-rule="evenodd" d="M1.527 14.545V0h1.455v.727h10.272l-2.18 4.364 2.181 4.364H2.982v5.09h.727V16H.8v-1.455h.727zM2.982 8h7.92L9.447 5.091l1.454-2.91h-7.92V8z"/>
</symbol><symbol id="icon-submit-ticket" viewBox="0 0 19 23">
    <path d="M12.508.5l5.628 5.628v14.524a2.015 2.015 0 0 1-2.015 2.015H2.015A2.015 2.015 0 0 1 0 20.652V2.515C0 1.402.902.5 2.015.5h10.493zm-2.433 2.015h-8.06v18.137h14.106V8.56h-4.03a2.015 2.015 0 0 1-2.015-2.015l-.001-4.03zm0 7.053v3.023h3.023v2.015h-3.022v3.023H8.06v-3.023H5.038v-2.015H8.06V9.568h2.015zm2.015-6.636v3.613h3.614L12.09 2.932z"/>
</symbol><symbol id="icon-support" viewBox="0 0 40 40">
    <path fill-rule="evenodd" d="M25.014 22.049h2.159v5.224h-2.159V22.05zm1.08-.42c-.793 0-1.3-.478-1.3-1.099 0-.62.507-1.098 1.3-1.098.792 0 1.299.44 1.299 1.06 0 .66-.507 1.137-1.3 1.137zM13.825 9.705c.745 0 1.26.487 1.26 1.127 0 .63-.515 1.146-1.26 1.146s-1.261-.516-1.261-1.146c0-.64.516-1.127 1.26-1.127zm-.392-2.913c-.41 0-.793.248-.993.65l-1.7-.85c.487-.918 1.451-1.548 2.98-1.548 1.499 0 2.617.63 2.617 1.824 0 1.461-1.529 1.72-1.529 2.455h-1.967c0-1.156 1.232-1.5 1.232-2.082 0-.296-.286-.449-.64-.449zm14.498 6.928H40v19.335h-4.312V40l-7.857-6.945H12.068V19.423L4.312 26.28v-6.946H0V0h27.932v13.72zm-16.65 3.27h.786v-3.27h13.52V2.344H2.344V16.99h4.312v4.088l4.625-4.088zm26.374 13.721V16.064H14.412v14.647H28.72l4.625 4.089v-4.09h4.312z"/>
</symbol><symbol id="icon-tag" viewBox="0 0 16 12">
    <path fill-rule="evenodd" d="M5.238.3h9.327C15.358.3 16 .942 16 1.735v8.61c0 .792-.642 1.434-1.435 1.434H5.238c-.362 0-.525-.134-.858-.49a7.035 7.035 0 0 1-.41-.486L0 6.04l.383-.459 3.551-4.258a5.836 5.836 0 0 1 .475-.584C4.686.45 4.891.3 5.24.3zm.108 1.541a5.826 5.826 0 0 0-.274.353L1.868 6.04 5.09 9.908a6.324 6.324 0 0 0 .37.436h9.104v-8.61H5.441c-.029.032-.061.067-.095.107zm3.32 4.546L11.753 3.3l1.017 1.017-4.104 4.104L6 5.755l1.017-1.017 1.649 1.65z"/>
</symbol><symbol id="icon-team" viewBox="0 0 24 17">
    <path fill-rule="evenodd" d="M16.079 9.659a8.437 8.437 0 0 0-2.294-1.496c.311-.31.58-.663.796-1.048a2.677 2.677 0 0 0 3.768-2.44 2.677 2.677 0 0 0-3.866-2.395A4.818 4.818 0 0 0 12.91.707 4.752 4.752 0 0 1 15.41 0a4.786 4.786 0 0 1 4.78 4.78c0 1.32-.537 2.517-1.405 3.383 2.962 1.303 5.035 4.265 5.035 7.702 0 .582-.472 1.053-1.054 1.053h-5c.582 0 1.054-.471 1.054-1.053 0-.343-.021-.682-.061-1.015h2.672a6.318 6.318 0 0 0-5.352-5.191zm-4.294-1.496c2.962 1.303 5.035 4.265 5.035 7.702 0 .582-.472 1.053-1.054 1.053H1.053A1.053 1.053 0 0 1 0 15.865c0-3.437 2.073-6.399 5.034-7.702A4.766 4.766 0 0 1 3.63 4.781 4.786 4.786 0 0 1 8.409 0a4.786 4.786 0 0 1 4.782 4.78c0 1.32-.538 2.517-1.406 3.383zM8.375 2A2.677 2.677 0 0 0 5.7 4.674C5.7 6.15 6.9 7.35 8.374 7.35c1.475 0 2.675-1.2 2.675-2.675C11.049 3.2 9.849 2 8.374 2zM2.1 14.95h12.43A6.313 6.313 0 0 0 8.316 9.7 6.313 6.313 0 0 0 2.1 14.95z"/>
</symbol><symbol id="icon-templates" viewBox="0 0 20 20">
    <path fill-rule="evenodd" d="M17.852 8l1.356.753c1.056.587 1.056 1.907 0 2.494L17.852 12l1.356.753c1.056.587 1.056 1.907 0 2.494l-8.051 4.473c-.673.373-1.641.373-2.314 0l-8.05-4.473c-1.057-.587-1.057-1.907 0-2.494L2.147 12l-1.356-.753c-1.056-.587-1.056-1.907 0-2.494L2.148 8 .792 7.247C-.264 6.66-.264 5.34.792 4.753L8.843.28c.673-.373 1.641-.373 2.314 0l8.05 4.473c1.057.587 1.057 1.907 0 2.494L17.853 8zm-2.059 1.144l-4.636 2.576c-.673.373-1.641.373-2.314 0L4.207 9.144 2.667 10l7.148 3.971a.616.616 0 0 0 .37 0L17.334 10l-1.541-.856zm0 4l-4.636 2.576c-.673.373-1.641.373-2.314 0l-4.636-2.576-1.54.856 7.148 3.971a.616.616 0 0 0 .37 0L17.334 14l-1.541-.856zM10.185 2.029a.616.616 0 0 0-.37 0L2.666 6l7.149 3.971a.616.616 0 0 0 .37 0L17.334 6l-7.149-3.971z"/>
</symbol><symbol id="icon-tick" viewBox="0 0 11 8">
    <path fill-rule="evenodd" d="M9.043 0L3.246 5.128 1.623 3.692 0 5.128 3.246 8l7.42-6.564z"/>
</symbol><symbol id="icon-tickets" viewBox="0 0 18 22">
    <path fill-rule="evenodd" d="M15 3h1a2 2 0 0 1 2 2v15a2 2 0 0 1-2 2H2a2 2 0 0 1-2-2V5a2 2 0 0 1 2-2h1a2 2 0 0 1 2-2h.996C6.748.363 7.839 0 9 0c1.16 0 2.252.363 3.004 1H13a2 2 0 0 1 2 2zM3.268 5H2v15h14V5h-1.268A2 2 0 0 1 13 6H5a2 2 0 0 1-1.732-1zm3.889-2.345l-.3.345H5v1h8V3h-1.858l-.299-.345C10.515 2.277 9.811 2 9 2c-.81 0-1.515.277-1.843.655zM5 15v-2h6v2H5zm0-4V9h8v2H5z"/>
</symbol><symbol id="icon-tools" viewBox="0 0 22 22">
    <path fill-rule="evenodd" d="M19.566 13.369a.856.856 0 0 0-.607-.254h-.002a.856.856 0 0 0-.607.252l-2.09 2.097a.86.86 0 0 0 .001 1.216.856.856 0 0 0 1.213-.001l1.481-1.487.799.806c.664.668.665 1.755.003 2.424l-1.339 1.351a1.701 1.701 0 0 1-1.214.509h-.003c-.459 0-.89-.18-1.213-.504l-3.782-3.785 8.481-8.48A4.376 4.376 0 0 0 21.974 4.4c0-1.176-.457-2.28-1.287-3.112A4.358 4.358 0 0 0 17.582 0a4.359 4.359 0 0 0-3.106 1.29l-3.483 3.489-3.754-3.766A3.404 3.404 0 0 0 4.812.003h-.003A3.4 3.4 0 0 0 2.384 1.01L1.026 2.37a3.445 3.445 0 0 0 0 4.86l3.762 3.766L2.2 13.588a.857.857 0 0 0-.22.377l-1.928 6.94a.86.86 0 0 0 1.06 1.057l6.744-1.919a.853.853 0 0 0 .547-.249l2.588-2.587 3.783 3.786A3.403 3.403 0 0 0 17.2 22h.007a3.403 3.403 0 0 0 2.429-1.016l1.338-1.352a3.449 3.449 0 0 0-.004-4.845l-1.404-1.418zm-5.348-9.391l3.784 3.792-1.232 1.232-3.784-3.79 1.232-1.234zm3.364-2.26c.715 0 1.387.28 1.893.786a2.67 2.67 0 0 1 .784 1.897c0 .716-.279 1.39-.784 1.896l-.259.26-3.786-3.794.259-.259a2.657 2.657 0 0 1 1.893-.786zM2.239 6.015a1.723 1.723 0 0 1 0-2.43l1.358-1.36a1.702 1.702 0 0 1 1.212-.504h.002c.458 0 .89.18 1.214.506l.814.818-1.508 1.511a.86.86 0 0 0 .606 1.467c.22 0 .44-.084.607-.252l1.507-1.51L9.78 5.993 6 9.781 2.24 6.015zm-.124 13.876l1.136-4.088 2.919 2.934-4.055 1.154zm5.7-1.934l-3.769-3.788 7.728-7.742 3.782 3.79-7.741 7.74z"/>
</symbol><symbol id="icon-warning" viewBox="0 0 486.463 486.463">
    <path d="M243.225 333.382c-13.6 0-25 11.4-25 25s11.4 25 25 25c13.1 0 25-11.4 24.4-24.4.6-14.3-10.7-25.6-24.4-25.6z"/>
    <path d="M474.625 421.982c15.7-27.1 15.8-59.4.2-86.4l-156.6-271.2c-15.5-27.3-43.5-43.5-74.9-43.5s-59.4 16.3-74.9 43.4l-156.8 271.5c-15.6 27.3-15.5 59.8.3 86.9 15.6 26.8 43.5 42.9 74.7 42.9h312.8c31.3 0 59.4-16.3 75.2-43.6zm-34-19.6c-8.7 15-24.1 23.9-41.3 23.9h-312.8c-17 0-32.3-8.7-40.8-23.4-8.6-14.9-8.7-32.7-.1-47.7l156.8-271.4c8.5-14.9 23.7-23.7 40.9-23.7 17.1 0 32.4 8.9 40.9 23.8l156.7 271.4c8.4 14.6 8.3 32.2-.3 47.1z"/>
    <path d="M237.025 157.882c-11.9 3.4-19.3 14.2-19.3 27.3.6 7.9 1.1 15.9 1.7 23.8 1.7 30.1 3.4 59.6 5.1 89.7.6 10.2 8.5 17.6 18.7 17.6s18.2-7.9 18.7-18.2c0-6.2 0-11.9.6-18.2 1.1-19.3 2.3-38.6 3.4-57.9.6-12.5 1.7-25 2.3-37.5 0-4.5-.6-8.5-2.3-12.5-5.1-11.2-17-16.9-28.9-14.1z"/>
</symbol></svg>